<?xml version="1.0" standalone="no"?><svg xmlns="http://www.w3.org/2000/svg" viewBox="0 0 1440 320"><path fill="#273036" fill-opacity="1" d="M0,192L14.1,197.3C28.2,203,56,213,85,197.3C112.9,181,141,139,169,122.7C197.6,107,226,117,254,149.3C282.4,181,311,235,339,245.3C367.1,256,395,224,424,192C451.8,160,480,128,508,101.3C536.5,75,565,53,593,80C621.2,107,649,181,678,202.7C705.9,224,734,192,762,197.3C790.6,203,819,245,847,250.7C875.3,256,904,224,932,213.3C960,203,988,213,1016,229.3C1044.7,245,1073,267,1101,240C1129.4,213,1158,139,1186,101.3C1214.1,64,1242,64,1271,74.7C1298.8,85,1327,107,1355,122.7C1383.5,139,1412,149,1426,154.7L1440,160L1440,320L1425.9,320C1411.8,320,1384,320,1355,320C1327.1,320,1299,320,1271,320C1242.4,320,1214,320,1186,320C1157.6,320,1129,320,1101,320C1072.9,320,1045,320,1016,320C988.2,320,960,320,932,320C903.5,320,875,320,847,320C818.8,320,791,320,762,320C734.1,320,706,320,678,320C649.4,320,621,320,593,320C564.7,320,536,320,508,320C480,320,452,320,424,320C395.3,320,367,320,339,320C310.6,320,282,320,254,320C225.9,320,198,320,169,320C141.2,320,113,320,85,320C56.5,320,28,320,14,320L0,320Z"></path></svg>